<svg xmlns="http://www.w3.org/2000/svg" aria-hidden="true" overflow="hidden" style="position:absolute;width:0;height:0">
  <defs>

    <symbol id="icon-facebook" viewBox="0 0 32 32">
      <path d="M23.987 2.128a37.26 37.26 0 0 0-4.049-.208c-4.484 0-7.271 2.856-7.271 7.453v3.121H8.9a.665.665 0 0 0-.666.666v5.133a.665.665 0 0 0 .666.666h3.767v10.293a.665.665 0 0 0 .666.666h5.304a.665.665 0 0 0 .666-.666V18.959h3.755a.662.662 0 0 0 .661-.58l.663-5.133a.662.662 0 0 0-.386-.694.65.65 0 0 0-.275-.059h-4.417V9.881c0-1.293.26-1.833 1.877-1.833H23.9a.665.665 0 0 0 .666-.666V2.789a.662.662 0 0 0-.58-.661zm-.754 4.587-2.053.001c-2.876 0-3.209 1.808-3.209 3.167v3.28a.665.665 0 0 0 .666.667h4.328l-.492 3.8h-3.835a.665.665 0 0 0-.666.666v10.291h-3.971V18.296a.665.665 0 0 0-.666-.666H9.57v-3.8h3.765a.665.665 0 0 0 .666-.666V9.375c0-3.832 2.22-6.12 5.937-6.12 1.345 0 2.56.073 3.296.137v3.324z"/>
    </symbol>
    <symbol id="icon-instagram" viewBox="0 0 32 32">
      <path d="M16 10.25a5.746 5.746 0 0 0-5.312 3.55 5.75 5.75 0 1 0 5.313-3.549zm0 10a4.248 4.248 0 0 1-3.005-7.255 4.253 4.253 0 0 1 6.539.644A4.25 4.25 0 0 1 20.25 16 4.265 4.265 0 0 1 16 20.25zm5.5-16.5h-11a6.75 6.75 0 0 0-6.75 6.75v11a6.75 6.75 0 0 0 6.75 6.75h11a6.75 6.75 0 0 0 6.75-6.75v-11a6.75 6.75 0 0 0-6.75-6.75zm5.25 17.75a5.247 5.247 0 0 1-5.25 5.25h-11a5.247 5.247 0 0 1-5.25-5.25v-11a5.247 5.247 0 0 1 5.25-5.25h11a5.247 5.247 0 0 1 5.25 5.25v11zm-3-12a1.243 1.243 0 0 1-.772 1.154 1.249 1.249 0 0 1-1.173-2.194 1.254 1.254 0 0 1 1.579.155c.235.234.366.552.366.884z"/>
    </symbol>
    <symbol id="icon-close" viewBox="0 0 32 32">
      <path d="M1 1L9 9L17 1" stroke-width="2" stroke-linecap="round"/>
      <path d="M1 17L9 9L17 17" stroke-width="2" stroke-linecap="round"/>
    </symbol>
    <symbol id="icon-menu" viewBox="0 0 46 32">
      <path d="M45.714 29.726c0 1.257-1.019 2.274-2.274 2.274h-18.309c-0.603 0-1.182-0.24-1.608-0.666s-0.666-1.005-0.666-1.608c0-0.603 0.24-1.182 0.666-1.608s1.005-0.666 1.608-0.666h18.309c1.257 0 2.274 1.017 2.274 2.274zM45.714 16c0 1.257-1.019 2.274-2.274 2.274h-41.166c-0.603 0-1.182-0.24-1.608-0.666s-0.666-1.005-0.666-1.608c0-0.603 0.24-1.182 0.666-1.608s1.005-0.666 1.608-0.666h41.166c1.257 0 2.274 1.019 2.274 2.274zM43.44 4.549c0.603 0 1.182-0.24 1.608-0.666s0.666-1.005 0.666-1.608c0-0.603-0.24-1.182-0.666-1.608s-1.005-0.666-1.608-0.666h-27.451c-0.299 0-0.594 0.059-0.87 0.173s-0.527 0.282-0.738 0.493c-0.211 0.211-0.379 0.462-0.493 0.738s-0.173 0.572-0.173 0.87c0 0.299 0.059 0.594 0.173 0.87s0.282 0.527 0.493 0.738c0.211 0.211 0.462 0.379 0.738 0.493s0.572 0.173 0.87 0.173h27.451z"></path>
    </symbol>
    <symbol id="icon-cheveron-left" viewBox="0 0 32 32">
      <path d="M11.28 14.869l-1.131 1.131 9.051 9.051 2.262-2.262-6.787-6.789 6.787-6.789-2.262-2.262z"></path>
    </symbol>
    <symbol id="icon-cheveron-right" viewBox="0 0 32 32">
      <path d="M20.72 17.131l1.131-1.131-9.051-9.051-2.262 2.262 6.787 6.789-6.787 6.789 2.262 2.262 7.92-7.92z"></path>
    </symbol>
    <symbol id="icon-info" viewBox="0 0 32 32">
      <path d="M14 9.5c0-0.825 0.675-1.5 1.5-1.5h1c0.825 0 1.5 0.675 1.5 1.5v1c0 0.825-0.675 1.5-1.5 1.5h-1c-0.825 0-1.5-0.675-1.5-1.5v-1z"></path>
      <path d="M20 24h-8v-2h2v-6h-2v-2h6v8h2z"></path>
      <path d="M16 0c-8.837 0-16 7.163-16 16s7.163 16 16 16 16-7.163 16-16-7.163-16-16-16zM16 29c-7.18 0-13-5.82-13-13s5.82-13 13-13 13 5.82 13 13-5.82 13-13 13z"></path>
    </symbol>
  </defs>
</svg>
